<?xml version="1.0" standalone="no"?>
<!DOCTYPE svg PUBLIC "-//W3C//DTD SVG 20010904//EN"
 "http://www.w3.org/TR/2001/REC-SVG-20010904/DTD/svg10.dtd">
<svg version="1.0" xmlns="http://www.w3.org/2000/svg"
 width="1051.000000pt" height="1051.000000pt" viewBox="0 0 1051.000000 1051.000000"
 preserveAspectRatio="xMidYMid meet">
<metadata>
Created by potrace 1.14, written by Peter Selinger 2001-2017
</metadata>
<g transform="translate(0.000000,1051.000000) scale(0.100000,-0.100000)"
fill="#000000" stroke="none">
<path d="M5219 10475 c-1 -11 -2 -26 -2 -32 1 -7 -4 -13 -9 -13 -5 0 -8 -6 -5
-12 2 -7 0 -23 -4 -36 -5 -12 -11 -35 -14 -50 -9 -47 -18 -96 -21 -117 -1 -11
-3 -20 -4 -20 -1 0 -3 -7 -5 -15 -1 -8 -10 -50 -19 -93 -9 -44 -14 -83 -11
-87 3 -5 1 -11 -5 -15 -6 -4 -8 -11 -5 -16 4 -5 2 -9 -2 -9 -5 0 -9 -12 -10
-27 0 -16 -9 -46 -19 -68 -10 -22 -17 -44 -15 -49 1 -5 -3 -12 -10 -17 -12 -7
-40 -72 -41 -96 -1 -7 -5 -13 -10 -13 -5 0 -6 -4 -3 -10 3 -5 1 -10 -5 -10 -6
0 -9 -4 -5 -9 3 -5 1 -12 -5 -16 -6 -4 -8 -11 -5 -16 4 -5 1 -9 -4 -9 -6 0
-11 -9 -11 -20 0 -11 -5 -20 -11 -20 -5 0 -8 -4 -4 -9 3 -5 1 -12 -5 -16 -6
-4 -8 -11 -5 -16 4 -5 1 -9 -5 -9 -6 0 -9 -4 -5 -9 3 -5 1 -12 -5 -16 -6 -4
-8 -11 -5 -16 4 -5 2 -9 -3 -9 -9 0 -25 -37 -23 -52 1 -5 -4 -8 -9 -8 -5 0 -9
-3 -8 -7 1 -5 -18 -48 -42 -98 -24 -49 -43 -93 -42 -97 1 -5 -4 -8 -12 -8 -8
0 -27 -25 -42 -55 -14 -31 -31 -58 -35 -61 -5 -3 -7 -10 -4 -15 4 -5 1 -9 -4
-9 -6 0 -11 -7 -11 -15 0 -8 -5 -15 -11 -15 -5 0 -7 -4 -4 -10 3 -5 1 -10 -4
-10 -6 0 -11 -6 -11 -14 0 -7 -9 -25 -20 -38 -10 -14 -17 -28 -14 -30 2 -3 -2
-11 -11 -18 -8 -7 -15 -18 -15 -25 0 -8 -3 -15 -7 -17 -7 -3 -28 -41 -47 -88
-14 -32 -34 -61 -42 -61 -10 -1 -48 -39 -38 -39 3 0 -5 -15 -19 -34 -15 -18
-28 -39 -29 -46 -2 -7 -13 -24 -25 -38 -13 -14 -23 -31 -23 -38 0 -8 -4 -14
-10 -14 -5 0 -10 -9 -10 -21 0 -11 -4 -17 -10 -14 -5 3 -10 -1 -10 -9 0 -8 -7
-22 -16 -30 -8 -9 -13 -16 -10 -16 3 0 -6 -12 -19 -26 -14 -15 -25 -33 -25
-41 0 -8 -4 -12 -8 -9 -4 3 -17 -12 -28 -32 -21 -40 -44 -63 -56 -56 -5 3 -8
0 -8 -5 0 -6 -7 -11 -15 -11 -8 0 -15 -4 -15 -10 0 -5 -11 -12 -25 -16 -14 -3
-25 -10 -25 -14 0 -5 -10 -12 -22 -16 -13 -4 -29 -14 -36 -23 -11 -12 -12 -13
-7 -1 4 8 -3 4 -15 -10 -12 -14 -18 -18 -14 -10 7 13 6 13 -12 0 -10 -8 -21
-17 -24 -20 -9 -9 -65 -34 -72 -32 -5 1 -8 -1 -8 -6 0 -4 -17 -16 -37 -27 -21
-11 -44 -26 -51 -33 -8 -7 -17 -10 -22 -7 -4 3 -11 -2 -14 -10 -3 -8 -9 -15
-13 -14 -21 3 -34 -2 -28 -12 4 -6 0 -9 -11 -7 -11 2 -18 -2 -16 -10 1 -6 -1
-11 -5 -10 -5 1 -18 -3 -29 -10 -12 -6 -24 -9 -28 -7 -3 3 -4 2 -1 -1 2 -4
-13 -16 -35 -28 -22 -12 -49 -29 -60 -38 -11 -10 -23 -18 -26 -18 -10 0 -128
-74 -136 -85 -4 -5 -8 -6 -8 -1 0 5 -9 1 -20 -9 -11 -10 -20 -24 -20 -32 0 -8
-4 -11 -10 -8 -6 3 -10 2 -10 -3 0 -4 -10 -19 -22 -32 -13 -14 -22 -28 -21
-32 2 -5 -4 -8 -12 -8 -8 0 -14 -3 -13 -7 3 -7 -24 -38 -109 -128 -17 -18 -30
-35 -28 -37 2 -2 -3 -9 -11 -16 -8 -7 -14 -10 -14 -7 0 2 -9 -3 -20 -12 -11
-10 -20 -23 -20 -29 0 -14 -65 -65 -73 -58 -3 3 -14 -15 -26 -40 -11 -25 -24
-46 -30 -46 -6 0 -8 -6 -5 -13 2 -7 -7 -24 -20 -36 -14 -13 -23 -28 -20 -32 3
-5 -2 -9 -10 -9 -9 0 -16 -5 -16 -11 0 -7 -11 -22 -26 -35 -14 -13 -22 -24
-19 -24 3 0 -11 -15 -32 -32 -21 -18 -50 -44 -64 -58 -15 -14 -36 -32 -49 -40
-12 -8 -35 -27 -52 -42 -17 -15 -35 -25 -39 -22 -5 3 -9 0 -9 -5 0 -6 -7 -11
-15 -11 -8 0 -15 -4 -15 -8 0 -5 -11 -15 -25 -22 -13 -7 -22 -17 -19 -22 3 -4
0 -8 -6 -8 -7 0 -10 -7 -6 -15 3 -8 1 -15 -4 -15 -13 0 -66 -60 -63 -71 2 -5
0 -8 -5 -7 -4 1 -20 -10 -36 -25 -16 -15 -26 -27 -22 -27 4 0 -6 -12 -21 -26
-15 -15 -27 -30 -26 -35 2 -5 -3 -9 -10 -9 -14 0 -63 -69 -59 -83 1 -5 -2 -6
-7 -3 -5 3 -28 -23 -51 -59 -25 -39 -47 -62 -54 -58 -6 3 -8 3 -4 -2 4 -4 3
-14 -4 -22 -6 -7 -8 -16 -5 -19 2 -3 -6 -17 -19 -31 -13 -14 -21 -29 -18 -34
3 -5 1 -9 -4 -9 -6 0 -19 -18 -31 -40 -11 -22 -18 -40 -14 -40 4 0 -2 -7 -13
-15 -10 -8 -16 -15 -12 -15 8 0 -63 -142 -82 -164 -5 -7 -8 -15 -5 -18 3 -3
-1 -11 -9 -17 -8 -7 -12 -20 -9 -29 3 -9 3 -14 -2 -10 -8 7 -60 -89 -57 -104
1 -5 -3 -8 -8 -8 -5 0 -9 -3 -8 -7 1 -5 -9 -28 -22 -53 -13 -25 -23 -48 -22
-52 1 -5 -2 -8 -7 -8 -7 0 -25 -47 -22 -57 1 -2 -8 -12 -19 -23 -12 -12 -18
-25 -15 -30 4 -6 -1 -10 -9 -10 -9 0 -15 -3 -15 -7 3 -20 -2 -34 -11 -28 -5 3
-10 0 -10 -8 0 -7 -9 -23 -20 -35 -11 -12 -20 -26 -20 -32 0 -5 -4 -10 -9 -10
-9 0 -26 -48 -23 -62 1 -5 -3 -8 -9 -8 -8 0 -8 -5 1 -15 8 -10 9 -15 2 -15 -7
0 -9 -7 -5 -17 5 -11 3 -14 -6 -8 -10 6 -11 3 -2 -12 8 -16 6 -25 -9 -41 -11
-12 -20 -25 -20 -30 0 -5 -11 -18 -25 -28 -14 -10 -25 -25 -25 -32 0 -7 -7
-15 -15 -18 -8 -3 -17 -14 -20 -25 -4 -11 -11 -17 -16 -14 -5 4 -9 0 -9 -7 0
-7 -11 -22 -25 -32 -13 -10 -22 -22 -19 -27 3 -5 1 -9 -4 -9 -5 0 -19 -9 -32
-20 -13 -11 -19 -20 -15 -20 4 0 1 -8 -8 -18 -10 -10 -14 -22 -10 -25 3 -4 1
-7 -6 -7 -8 0 -11 -7 -7 -15 3 -8 1 -15 -4 -15 -6 0 -10 -7 -10 -15 0 -8 -5
-15 -11 -15 -5 0 -7 -4 -4 -10 3 -5 1 -10 -5 -10 -6 0 -9 -4 -5 -9 6 -10 -24
-82 -39 -92 -5 -4 -5 -12 -2 -18 4 -6 2 -11 -4 -11 -6 0 -8 -5 -5 -10 3 -6 -1
-17 -9 -26 -9 -9 -14 -20 -11 -25 4 -5 1 -9 -4 -9 -6 0 -10 -3 -9 -7 2 -10 -9
-41 -28 -76 -8 -16 -12 -33 -8 -38 3 -5 0 -9 -5 -9 -6 0 -11 -9 -11 -20 0 -11
-4 -20 -9 -20 -5 0 -8 -8 -7 -17 2 -10 -1 -21 -6 -24 -5 -3 -10 -12 -12 -20
-1 -8 -9 -28 -17 -45 -9 -16 -15 -40 -14 -52 1 -11 -2 -19 -7 -16 -4 3 -8 -4
-8 -15 0 -12 -5 -21 -10 -21 -6 0 -9 -3 -9 -7 1 -5 0 -11 -1 -15 -1 -5 -3 -11
-4 -15 -2 -5 -11 -28 -21 -53 -11 -25 -18 -47 -16 -49 1 -2 -2 -7 -9 -11 -6
-4 -13 -13 -14 -21 -2 -8 -9 -27 -16 -44 -12 -29 -20 -175 -10 -175 14 0 -15
-156 -30 -165 -5 -3 -17 -23 -27 -43 -9 -20 -21 -40 -26 -43 -5 -3 -9 -10 -9
-15 -1 -11 -5 -27 -15 -51 -23 -60 -20 -155 5 -191 12 -16 22 -35 22 -42 0 -6
4 -8 10 -5 5 3 10 -1 10 -9 0 -9 5 -16 10 -16 6 0 9 -3 8 -7 -3 -13 24 -63 34
-63 4 0 8 -5 8 -11 0 -6 14 -31 30 -56 17 -24 30 -46 30 -49 0 -3 14 -25 30
-50 17 -24 27 -44 23 -44 -4 0 0 -5 10 -11 9 -5 17 -17 17 -24 0 -8 5 -15 11
-15 5 0 8 -4 5 -8 -3 -5 6 -20 20 -35 13 -15 24 -29 23 -33 -2 -6 16 -35 36
-58 17 -20 35 -50 41 -68 4 -10 10 -18 14 -18 5 0 12 -9 15 -20 4 -11 18 -32
31 -45 14 -14 22 -25 19 -25 -4 0 7 -17 23 -37 16 -21 35 -49 42 -63 7 -13 19
-31 27 -38 7 -7 13 -20 13 -28 0 -8 4 -12 10 -9 5 3 12 -6 16 -20 3 -14 11
-29 18 -33 13 -8 45 -59 53 -84 3 -10 12 -18 21 -18 8 0 12 -3 9 -6 -8 -9 39
-76 89 -128 11 -12 21 -28 22 -36 1 -8 3 -30 5 -47 2 -18 6 -36 10 -39 11 -12
8 -26 -4 -18 -8 4 -8 1 -1 -12 5 -11 12 -37 15 -59 8 -55 11 -68 21 -83 4 -7
5 -16 2 -19 -3 -3 1 -18 8 -32 16 -30 29 -61 30 -76 1 -5 11 -10 24 -9 12 0
22 -4 22 -9 0 -5 7 -7 15 -4 8 4 17 2 20 -3 3 -5 12 -7 20 -3 8 3 15 0 15 -6
0 -6 6 -11 13 -11 7 0 23 -9 35 -20 12 -11 27 -20 33 -20 7 0 10 -3 7 -6 -7
-7 39 -54 53 -54 6 0 8 -4 5 -8 -3 -5 4 -15 15 -22 10 -8 19 -20 19 -28 0 -7
4 -10 10 -7 5 3 10 -1 10 -10 0 -9 4 -13 10 -10 5 3 10 1 10 -5 0 -6 4 -8 10
-5 5 3 10 1 10 -5 0 -6 5 -8 10 -5 6 4 30 -14 55 -39 25 -24 45 -43 45 -41 0
2 16 -13 35 -32 19 -19 35 -37 35 -39 0 -2 23 -25 50 -52 28 -27 50 -55 50
-63 0 -11 2 -11 10 1 9 13 10 13 10 0 0 -9 9 -22 20 -30 11 -8 20 -20 20 -26
0 -7 7 -15 16 -18 8 -3 12 -10 9 -16 -3 -5 -1 -10 4 -10 6 0 11 -5 11 -10 0
-6 9 -20 20 -32 11 -12 20 -28 20 -35 0 -7 4 -13 9 -13 5 0 15 -16 22 -35 7
-19 17 -35 21 -35 4 0 8 -6 8 -13 0 -7 5 -18 12 -25 11 -11 18 -31 20 -59 1
-7 5 -13 10 -13 5 0 6 -5 2 -12 -4 -6 -3 -8 3 -5 5 3 21 -5 35 -18 14 -13 29
-21 32 -18 3 4 6 1 6 -6 0 -7 4 -9 10 -6 5 3 10 1 10 -4 0 -6 7 -11 15 -11 8
0 15 -4 15 -10 0 -5 12 -10 26 -10 14 0 23 -4 20 -9 -5 -8 15 -18 58 -27 11
-3 23 1 28 8 6 10 8 10 8 0 0 -8 10 -13 23 -12 12 1 24 1 27 0 3 -1 32 -3 65
-4 33 -1 66 -5 72 -9 6 -4 15 -3 18 3 4 7 11 8 18 1 7 -5 28 -12 48 -15 20 -3
48 -10 62 -15 14 -5 28 -7 31 -4 3 4 6 1 6 -6 0 -6 6 -11 13 -9 6 1 22 -3 35
-10 12 -7 22 -11 22 -8 0 2 27 -6 60 -19 33 -13 60 -21 60 -18 0 3 7 0 15 -7
8 -6 19 -9 25 -5 5 3 10 1 10 -5 0 -6 5 -8 10 -5 6 3 10 1 10 -5 0 -6 4 -9 9
-5 5 3 12 1 16 -5 4 -6 11 -8 16 -5 5 4 9 1 9 -5 0 -6 5 -8 10 -5 6 3 17 -1
26 -9 8 -9 24 -16 35 -16 21 0 259 -231 259 -252 0 -6 3 -9 6 -5 6 6 96 -79
92 -88 -2 -3 13 -15 32 -26 19 -12 38 -26 41 -32 4 -5 12 -6 18 -3 6 4 11 2
11 -4 0 -6 5 -8 10 -5 6 3 10 2 10 -3 0 -6 15 -13 33 -16 17 -3 43 -12 57 -19
14 -7 45 -19 70 -27 25 -7 49 -17 55 -22 5 -4 16 -8 25 -8 10 0 31 -7 48 -16
18 -8 36 -13 42 -9 5 3 10 2 10 -3 0 -9 79 -35 106 -35 8 0 14 -4 14 -8 0 -4
16 -6 35 -5 19 1 35 -3 35 -9 0 -7 3 -7 8 0 4 6 40 10 79 10 40 0 73 2 73 5 0
3 30 5 68 5 37 0 73 4 79 9 9 5 13 4 13 -5 0 -9 3 -10 8 -3 4 6 21 11 37 12
17 1 55 4 85 7 30 3 78 7 106 9 28 1 56 6 64 11 9 6 11 4 5 -4 -6 -10 -3 -11
14 -2 14 8 21 8 21 1 0 -7 6 -8 18 -2 9 4 41 8 70 7 29 -1 55 3 58 7 3 5 10 6
15 3 5 -4 15 -3 22 2 6 4 15 8 20 9 4 1 8 2 10 4 1 1 9 3 17 5 8 2 47 15 85
28 39 14 93 28 120 31 28 4 67 9 88 12 21 3 53 7 70 9 18 1 52 6 77 9 25 4 63
8 85 11 67 7 117 15 125 20 10 6 150 -65 150 -76 0 -5 9 -9 20 -9 11 0 20 -4
20 -9 0 -19 87 -34 108 -18 6 5 12 7 12 3 0 -17 123 66 170 115 14 14 33 28
43 32 9 3 17 11 17 17 0 6 5 8 10 5 6 -4 17 -1 25 5 8 7 15 9 15 5 0 -4 7 -2
15 5 8 7 15 9 15 5 0 -4 6 -2 14 4 11 9 15 9 19 -1 4 -11 6 -10 6 0 1 7 6 10
11 7 6 -3 10 -2 10 4 0 6 7 8 15 5 8 -4 22 -1 30 6 8 7 15 10 15 6 0 -4 15 1
33 10 33 17 64 52 59 67 -1 5 2 6 7 3 5 -4 17 4 25 16 9 12 16 19 16 16 0 -4
12 4 27 18 14 13 28 22 31 19 3 -2 17 4 31 14 34 23 104 56 114 53 4 -1 7 2 7
8 0 6 3 9 8 8 4 -1 17 3 30 10 12 7 22 10 22 7 0 -3 11 2 24 10 17 12 23 23
21 45 -1 16 1 28 5 25 4 -3 10 1 13 8 3 9 23 13 60 12 l55 -1 -2 33 c-1 21 3
33 11 33 7 0 13 4 13 9 0 5 10 7 22 3 16 -4 19 -2 13 9 -7 11 -5 11 10 -1 13
-11 19 -12 22 -3 2 7 11 9 20 6 11 -4 14 -2 9 5 -4 7 -1 12 8 12 9 0 16 4 16
10 0 5 11 15 24 22 14 7 24 16 23 19 -1 3 6 13 16 23 9 10 17 14 17 10 0 -4 7
1 15 12 8 10 15 15 15 9 0 -5 9 4 20 20 11 17 20 27 20 23 0 -3 15 8 33 25 34
33 117 104 177 154 19 15 37 31 38 36 2 4 10 7 18 7 8 0 13 4 12 9 -2 5 0 9 5
10 4 0 18 11 31 23 26 25 55 48 107 88 18 14 46 37 61 52 16 16 31 28 34 28 3
0 17 11 32 25 15 14 32 25 39 25 6 0 19 7 27 16 9 9 22 17 29 19 36 8 76 28
71 36 -3 5 2 9 11 9 11 0 15 5 12 14 -4 9 2 17 14 21 10 4 19 10 19 14 0 12
43 8 52 -4 5 -7 8 -6 8 0 0 6 17 11 38 12 20 1 51 4 67 8 17 4 36 8 43 8 6 0
12 3 12 7 0 3 11 7 25 8 47 3 55 5 55 14 0 4 5 8 11 8 5 0 7 -6 4 -13 -4 -6
-1 -5 7 3 7 9 20 15 28 15 8 -1 24 4 35 10 11 7 30 11 43 10 12 -1 22 2 22 6
0 5 8 9 18 9 10 0 26 15 36 35 11 19 25 35 33 35 17 0 42 24 73 70 14 19 31
40 39 46 8 6 11 16 7 22 -4 7 15 34 44 63 27 29 50 58 50 66 0 7 0 15 0 18 0
3 8 14 18 24 39 44 42 49 42 77 0 8 5 12 10 9 6 -3 10 1 10 9 0 9 5 16 12 16
6 0 9 3 5 6 -3 4 -1 12 6 20 30 34 37 44 30 44 -4 0 -3 4 3 8 15 9 57 92 47
92 -5 0 -3 4 2 8 14 10 57 131 59 164 0 14 4 24 8 21 5 -2 8 10 8 26 0 17 4
31 8 31 4 0 8 28 9 63 2 121 12 202 28 240 8 21 13 42 10 47 -4 6 -2 10 4 10
5 0 8 9 6 20 -2 11 1 20 6 20 6 0 8 4 5 8 -3 5 1 30 9 55 8 26 11 47 8 47 -3
0 0 7 7 15 12 14 18 45 23 113 1 12 4 22 7 22 3 0 5 32 5 71 0 39 3 73 7 75 5
3 4 13 -2 23 -6 12 -5 22 2 29 7 7 8 12 2 12 -5 0 -10 15 -11 33 -2 64 -10
133 -16 143 -8 13 3 28 31 43 12 7 20 16 17 22 -4 5 -1 9 4 9 6 0 11 5 11 11
0 5 -6 7 -12 4 -7 -4 -4 1 6 9 11 9 15 16 10 16 -6 0 -11 10 -12 23 -2 38 -26
117 -35 117 -4 0 -6 4 -3 9 3 4 1 23 -4 42 -6 19 -13 47 -16 64 -3 16 -10 35
-16 42 -5 7 -8 20 -4 28 3 8 1 15 -4 15 -5 0 -7 9 -5 20 2 11 0 20 -4 20 -4 0
-8 6 -9 13 -1 16 -7 38 -17 61 -4 10 -8 31 -9 46 -1 15 -5 25 -10 22 -5 -3 -7
2 -3 11 3 10 2 17 -4 17 -6 0 -7 5 -4 10 3 6 2 10 -3 10 -6 0 -10 6 -9 12 1
38 -4 69 -11 64 -4 -2 -8 5 -8 17 0 28 -42 117 -55 117 -6 0 -7 5 -4 10 5 9
-10 15 -18 8 -5 -5 -35 27 -31 33 1 3 -3 30 -9 60 -7 30 -12 71 -12 91 1 21
-3 38 -7 38 -5 0 -6 5 -2 12 12 19 11 148 -1 148 -5 0 -4 4 3 9 8 4 14 12 14
16 0 4 -6 12 -14 17 -8 6 -9 11 -2 14 10 4 10 94 0 121 -3 7 -2 13 2 13 5 0 7
15 5 33 -6 49 -6 50 0 80 4 17 1 27 -6 27 -8 0 -9 3 -1 8 11 8 11 62 0 81 -4
6 -3 11 2 11 10 0 9 56 -1 66 -3 4 -2 15 4 25 5 11 6 19 1 19 -5 0 -9 15 -10
33 -1 17 -4 48 -8 67 -3 19 -7 53 -9 75 -1 22 -4 42 -5 45 -1 3 -2 9 -1 14 1
4 -4 15 -11 24 -10 12 -10 14 0 8 6 -4 12 -2 12 3 0 6 -5 11 -11 11 -6 0 -8
13 -5 30 4 28 -6 44 -29 45 -25 1 -85 27 -80 35 3 5 -1 25 -9 44 -8 19 -12 37
-8 40 3 3 1 6 -4 6 -5 0 -11 12 -12 27 -1 15 -5 29 -10 32 -4 3 -8 13 -10 21
-7 37 -97 249 -111 260 -3 3 -7 12 -9 20 -2 8 -22 53 -45 100 -23 47 -42 87
-42 90 0 3 -17 38 -38 79 -20 40 -34 77 -31 82 3 5 1 9 -5 9 -9 0 -17 16 -23
45 -1 6 -10 19 -20 29 -10 11 -18 28 -18 38 0 10 -3 17 -7 16 -12 -2 -44 13
-74 33 -14 10 -28 16 -31 13 -3 -2 -11 2 -18 11 -7 8 -21 15 -31 15 -11 0 -19
4 -19 9 0 8 -51 31 -67 30 -3 -1 -9 3 -12 8 -9 12 -71 43 -86 43 -7 0 -15 4
-17 8 -4 10 -120 67 -130 64 -5 -1 -8 2 -8 7 0 4 -27 20 -60 35 -33 15 -60 31
-60 36 0 5 -7 7 -15 4 -8 -4 -15 -2 -15 3 0 6 -18 16 -40 23 -22 7 -40 17 -40
22 0 4 -8 8 -18 8 -10 0 -28 9 -40 20 -12 12 -22 18 -22 14 0 -3 -6 -1 -13 5
-8 6 -17 8 -20 4 -4 -3 -7 -1 -7 5 0 7 -7 12 -15 12 -8 0 -15 5 -15 11 0 5 -4
8 -9 5 -5 -3 -14 1 -21 9 -7 8 -16 13 -20 10 -4 -3 -11 2 -14 11 -4 9 -13 14
-21 10 -9 -3 -18 1 -21 9 -4 8 -12 15 -19 15 -8 0 -41 27 -74 60 -34 33 -66
60 -71 60 -6 0 -8 5 -5 10 3 6 2 10 -3 10 -5 0 -65 54 -132 120 -67 66 -127
120 -133 120 -6 0 -8 3 -5 6 8 8 -161 174 -178 174 -8 0 -14 9 -14 19 0 11 -9
23 -20 26 -11 3 -20 11 -20 16 0 6 -4 8 -9 5 -5 -3 -21 1 -37 9 -15 7 -31 12
-36 9 -4 -3 -8 0 -8 6 0 7 -7 10 -15 6 -8 -3 -15 -2 -15 3 0 4 -28 16 -62 26
-35 11 -66 24 -70 30 -4 5 -8 7 -8 2 0 -4 -16 -1 -35 7 -19 8 -35 12 -35 9 0
-3 -10 2 -22 13 -13 12 -18 13 -13 4 7 -13 6 -13 -7 -2 -15 12 -47 23 -75 24
-7 1 -13 5 -13 9 0 4 -7 10 -16 13 -8 3 -13 2 -9 -3 3 -5 -13 -1 -34 10 -22
10 -47 19 -55 19 -8 0 -18 5 -21 10 -3 6 -15 10 -26 10 -10 0 -19 5 -19 12 0
6 -3 8 -6 5 -4 -3 -15 -2 -26 4 -11 6 -29 12 -40 14 -12 3 -25 10 -30 17 -4 7
-8 9 -8 4 0 -6 -5 -5 -12 2 -7 7 -23 12 -35 12 -20 0 -22 3 -14 19 6 10 7 21
4 25 -3 3 -1 6 5 6 7 0 11 3 11 8 -1 4 -1 9 1 12 1 3 3 16 6 30 2 14 7 32 11
40 3 8 7 21 9 28 1 8 6 21 10 30 4 9 8 24 9 32 12 71 16 90 24 122 5 20 6 39
3 42 -3 4 -1 6 4 6 5 0 11 28 12 62 2 35 0 60 -4 56 -6 -6 -22 9 -73 67 -21
24 -50 43 -56 37 -4 -4 -5 -2 -3 4 3 12 -132 150 -144 147 -4 -2 -9 5 -13 15
-3 9 -23 31 -45 47 -21 17 -39 36 -40 43 0 6 -4 12 -9 12 -5 0 -23 14 -39 30
-17 17 -32 30 -35 30 -2 0 -36 32 -76 70 -39 39 -71 68 -71 66 0 -3 -11 5 -25
18 -14 13 -25 29 -25 35 0 7 -4 9 -10 6 -5 -3 -10 -3 -10 2 0 4 -18 27 -40 51
-22 23 -38 42 -35 42 6 0 -7 17 -43 55 -12 14 -22 27 -22 30 0 6 -13 23 -42
56 -10 10 -15 19 -12 19 3 0 -2 7 -10 16 -9 8 -16 22 -16 30 0 8 -4 13 -8 10
-5 -3 -15 7 -23 22 -8 15 -24 38 -36 52 -13 14 -23 31 -23 38 0 7 -7 15 -15
18 -8 4 -15 11 -15 18 0 9 -12 26 -59 82 -5 7 -7 15 -4 18 4 3 1 6 -5 6 -7 0
-11 3 -10 8 1 4 -6 32 -16 63 -9 31 -19 67 -21 79 -3 13 -8 26 -13 29 -5 3 -8
14 -6 24 1 9 -2 17 -7 17 -4 0 -6 7 -3 15 4 8 2 15 -3 15 -5 0 -10 10 -10 23
-1 12 -7 42 -13 67 -7 25 -13 52 -15 60 -2 8 -4 15 -5 15 -2 0 -11 38 -12 53
-1 6 -4 12 -8 12 -4 0 -7 6 -8 13 -1 18 -9 49 -21 77 -9 22 -10 23 -12 5z"/>
</g>
</svg>
